<svg width="60" height="60" viewBox="0 0 60 60" fill="none" xmlns="http://www.w3.org/2000/svg">
<g filter="url(#filter0_b_0_233)">
<rect width="60" height="60" rx="16" fill="#78B6FF" fill-opacity="0.2"/>
</g>
<path d="M30.3258 20.935C30.2385 20.8516 30.1225 20.805 30.0018 20.805C29.881 20.805 29.765 20.8516 29.6777 20.935L18.8906 31.2399C18.8448 31.2837 18.8084 31.3364 18.7835 31.3947C18.7586 31.453 18.7458 31.5158 18.7459 31.5792L18.7441 41.2506C18.7441 41.7479 18.9417 42.2248 19.2933 42.5765C19.6449 42.9281 20.1219 43.1256 20.6191 43.1256H26.25C26.4986 43.1256 26.7371 43.0269 26.9129 42.851C27.0887 42.6752 27.1875 42.4368 27.1875 42.1881V34.2194C27.1875 34.0951 27.2369 33.9758 27.3248 33.8879C27.4127 33.8 27.5319 33.7506 27.6562 33.7506H32.3437C32.4681 33.7506 32.5873 33.8 32.6752 33.8879C32.7631 33.9758 32.8125 34.0951 32.8125 34.2194V42.1881C32.8125 42.4368 32.9113 42.6752 33.0871 42.851C33.2629 43.0269 33.5014 43.1256 33.75 43.1256H39.3785C39.8758 43.1256 40.3527 42.9281 40.7043 42.5765C41.056 42.2248 41.2535 41.7479 41.2535 41.2506V31.5792C41.2536 31.5158 41.2408 31.453 41.2159 31.3947C41.191 31.3364 41.1546 31.2837 41.1088 31.2399L30.3258 20.935Z" fill="#0C6DFC"/>
<path d="M43.765 29.3074L39.3822 25.1144V18.7517C39.3822 18.5031 39.2834 18.2646 39.1076 18.0888C38.9318 17.913 38.6933 17.8142 38.4447 17.8142H35.6322C35.3836 17.8142 35.1451 17.913 34.9693 18.0888C34.7935 18.2646 34.6947 18.5031 34.6947 18.7517V20.6267L31.3009 17.3818C30.9834 17.0607 30.5111 16.8767 30.0007 16.8767C29.4922 16.8767 29.0211 17.0607 28.7035 17.3824L16.2406 29.3062C15.8761 29.6578 15.8304 30.2361 16.1621 30.6169C16.2454 30.7131 16.3473 30.7913 16.4618 30.8467C16.5762 30.9022 16.7008 30.9338 16.8278 30.9396C16.9549 30.9454 17.0818 30.9253 17.2009 30.8805C17.3199 30.8357 17.4286 30.7672 17.5203 30.6791L29.6785 19.0611C29.7657 18.9776 29.8818 18.9311 30.0025 18.9311C30.1232 18.9311 30.2393 18.9776 30.3265 19.0611L42.4859 30.6791C42.665 30.8508 42.9049 30.9446 43.153 30.9397C43.4012 30.9349 43.6372 30.8319 43.8095 30.6533C44.1693 30.2806 44.1394 29.6654 43.765 29.3074Z" fill="#0C6DFC"/>
<defs>
<filter id="filter0_b_0_233" x="-100" y="-100" width="260" height="260" filterUnits="userSpaceOnUse" color-interpolation-filters="sRGB">
<feFlood flood-opacity="0" result="BackgroundImageFix"/>
<feGaussianBlur in="BackgroundImageFix" stdDeviation="50"/>
<feComposite in2="SourceAlpha" operator="in" result="effect1_backgroundBlur_0_233"/>
<feBlend mode="normal" in="SourceGraphic" in2="effect1_backgroundBlur_0_233" result="shape"/>
</filter>
</defs>
</svg>
